<!DOCTYPE svg PUBLIC "-//W3C//DTD SVG 1.1//EN" "http://www.w3.org/Graphics/SVG/1.1/DTD/svg11.dtd">
<!-- Uploaded to: SVG Repo, www.svgrepo.com, Transformed by: SVG Repo Mixer Tools -->
<svg width="64px" height="64px" viewBox="-2.4 -2.4 28.80 28.80" xmlns="http://www.w3.org/2000/svg" id="receipt-check" class="icon glyph" fill="#000000" stroke="#000000" transform="matrix(-1, 0, 0, -1, 0, 0)rotate(0)" stroke-width="0.9600000000000002">
<g id="SVGRepo_bgCarrier" stroke-width="0"/>
<g id="SVGRepo_tracerCarrier" stroke-linecap="round" stroke-linejoin="round" stroke="#CCCCCC" stroke-width="0.288"/>
<g id="SVGRepo_iconCarrier">
<path d="M20,2H6A2,2,0,0,0,4,4V15H3a1,1,0,0,0-1,1v2.5A3.5,3.5,0,0,0,5.5,22h13A3.5,3.5,0,0,0,22,18.5V4A2,2,0,0,0,20,2ZM9.29,9.29a1,1,0,0,1,1.42,0L12,10.59l3.29-3.3a1,1,0,1,1,1.42,1.42l-4,4a1,1,0,0,1-1.42,0l-2-2A1,1,0,0,1,9.29,9.29ZM5.5,20A1.5,1.5,0,0,1,4,18.5V17H15v1.5a3.74,3.74,0,0,0,.08.75l.07.22c0,.16.1.32.16.46l0,.07Z" style="fill:#ffffff"/>
</g>
</svg>